<?xml version="1.0" encoding="UTF-8"?><!DOCTYPE svg PUBLIC "-//W3C//DTD SVG 1.1//EN" "http://www.w3.org/Graphics/SVG/1.1/DTD/svg11.dtd"><svg xmlns="http://www.w3.org/2000/svg" xmlns:xlink="http://www.w3.org/1999/xlink" version="1.1" width="24" height="24" viewBox="0 0 24 24"><path d="M7,3H16C17.66,3 19,4.34 19,6V19C19,20.66 17.66,22 16,22H7C5.34,22 4,20.66 4,19V6C4,4.34 5.34,3 7,3M7,4C5.9,4 5,4.9 5,6V19C5,20.1 5.9,21 7,21H16C17.1,21 18,20.1 18,19V6C18,4.9 17.1,4 16,4H13V10.7L10,8.6L7,10.7V4M12,4H8V8.78L10,7.38L12,8.78V4M9,19V17H7V16H9V14H10V16H12V17H10V19H9Z" /></svg>