<?xml version="1.0" encoding="UTF-8"?><!DOCTYPE svg PUBLIC "-//W3C//DTD SVG 1.1//EN" "http://www.w3.org/Graphics/SVG/1.1/DTD/svg11.dtd"><svg xmlns="http://www.w3.org/2000/svg" xmlns:xlink="http://www.w3.org/1999/xlink" version="1.1" width="24" height="24" viewBox="0 0 24 24"><path d="M5,7H14C15.1,7 16,7.9 16,9V11.5L20,7.5V17.5L16,13.5V16C16,17.1 15.1,18 14,18H5C3.9,18 3,17.1 3,16V9C3,7.9 3.9,7 5,7M5,8C4.45,8 4,8.45 4,9V16C4,16.55 4.45,17 5,17H14C14.55,17 15,16.55 15,16V9C15,8.45 14.55,8 14,8H5M19,9.91L16.41,12.5L19,15.09V9.91Z" /></svg>