<?xml version="1.0" encoding="UTF-8"?><!DOCTYPE svg PUBLIC "-//W3C//DTD SVG 1.1//EN" "http://www.w3.org/Graphics/SVG/1.1/DTD/svg11.dtd"><svg xmlns="http://www.w3.org/2000/svg" xmlns:xlink="http://www.w3.org/1999/xlink" version="1.1" width="24" height="24" viewBox="0 0 24 24"><path d="M12,3H13C17.42,3 21,6.58 21,11V12H12V3M13,11H20C20,7.13 16.87,4 13,4V11M10,14H18C18,18.42 14.42,22 10,22C5.58,22 2,18.42 2,14C2,9.58 5.58,6 10,6V14M9,15V7.07C5.61,7.56 3,10.47 3,14C3,17.87 6.13,21 10,21C13.53,21 16.44,18.39 16.93,15H9Z" /></svg>