<?xml version="1.0" encoding="UTF-8"?><!DOCTYPE svg PUBLIC "-//W3C//DTD SVG 1.1//EN" "http://www.w3.org/Graphics/SVG/1.1/DTD/svg11.dtd"><svg xmlns="http://www.w3.org/2000/svg" xmlns:xlink="http://www.w3.org/1999/xlink" version="1.1" width="24" height="24" viewBox="0 0 24 24"><path d="M11.5,1C12.71,1 13.72,1.86 13.95,3H17C18.66,3 20,4.34 20,6V19C20,20.66 18.66,22 17,22H6C4.34,22 3,20.66 3,19V6C3,4.34 4.34,3 6,3H9.05C9.28,1.86 10.29,1 11.5,1M12.91,3C12.71,2.42 12.15,2 11.5,2C10.85,2 10.29,2.42 10.09,3H12.91M6,4C4.9,4 4,4.9 4,6V19C4,20.1 4.9,21 6,21H17C18.1,21 19,20.1 19,19V6C19,4.9 18.1,4 17,4H16V7H7V4H6M8,4V6H15V4H8Z" /></svg>