<?xml version="1.0" encoding="UTF-8"?><!DOCTYPE svg PUBLIC "-//W3C//DTD SVG 1.1//EN" "http://www.w3.org/Graphics/SVG/1.1/DTD/svg11.dtd"><svg xmlns="http://www.w3.org/2000/svg" xmlns:xlink="http://www.w3.org/1999/xlink" version="1.1" width="24" height="24" viewBox="0 0 24 24"><path d="M5,5H18C19.66,5 21,6.34 21,8V17C21,18.66 19.66,20 18,20H5C3.34,20 2,18.66 2,17V8C2,6.34 3.34,5 5,5M5,6C3.9,6 3,6.9 3,8V9H20V8C20,6.9 19.1,6 18,6H5M3,17C3,18.1 3.9,19 5,19H18C19.1,19 20,18.1 20,17V12H3V17M5,16H9V17H5V16M11,16H14V17H11V16M3,10V11H20V10H3Z" /></svg>