<?xml version="1.0" encoding="UTF-8"?><!DOCTYPE svg PUBLIC "-//W3C//DTD SVG 1.1//EN" "http://www.w3.org/Graphics/SVG/1.1/DTD/svg11.dtd"><svg xmlns="http://www.w3.org/2000/svg" xmlns:xlink="http://www.w3.org/1999/xlink" version="1.1" width="24" height="24" viewBox="0 0 24 24"><path d="M18,19C18,20.66 16.66,22 15,22H8C6.34,22 5,20.66 5,19V7H4V4H8.5L9.5,3H13.5L14.5,4H19V7H18V19M6,7V19C6,20.1 6.9,21 8,21H15C16.1,21 17,20.1 17,19V7H6M18,6V5H14L13,4H10L9,5H5V6H18M8,9H9V19H8V9M14,9H15V19H14V9Z" /></svg>