<?xml version="1.0" encoding="UTF-8"?><!DOCTYPE svg PUBLIC "-//W3C//DTD SVG 1.1//EN" "http://www.w3.org/Graphics/SVG/1.1/DTD/svg11.dtd"><svg xmlns="http://www.w3.org/2000/svg" xmlns:xlink="http://www.w3.org/1999/xlink" version="1.1" width="24" height="24" viewBox="0 0 24 24"><path d="M5,5H18C19.66,5 21,6.34 21,8V17C21,18.66 19.66,20 18,20H5C3.34,20 2,18.66 2,17V8C2,6.34 3.34,5 5,5M5,6C4.5,6 4.06,6.17 3.72,6.47L11.5,11.5L19.28,6.47C18.94,6.17 18.5,6 18,6H5M11.5,12.71L3.13,7.28C3.05,7.5 3,7.75 3,8V17C3,18.1 3.9,19 5,19H18C19.1,19 20,18.1 20,17V8C20,7.75 19.95,7.5 19.87,7.28L11.5,12.71Z" /></svg>