<?xml version="1.0" encoding="UTF-8"?><!DOCTYPE svg PUBLIC "-//W3C//DTD SVG 1.1//EN" "http://www.w3.org/Graphics/SVG/1.1/DTD/svg11.dtd"><svg xmlns="http://www.w3.org/2000/svg" xmlns:xlink="http://www.w3.org/1999/xlink" version="1.1" width="24" height="24" viewBox="0 0 24 24"><path d="M15,11C13.34,11 12,9.66 12,8V4H8C6.9,4 6,4.9 6,6V19C6,20.1 6.9,21 8,21H17C18.1,21 19,20.1 19,19V11H15M13,8C13,9.1 13.9,10 15,10H18.59L13,4.41V8M8,3H13L20,10V19C20,20.66 18.66,22 17,22H8C6.34,22 5,20.66 5,19V6C5,4.34 6.34,3 8,3M8,24C5.24,24 3,21.76 3,19V7H4V19C4,21.21 5.79,23 8,23H16V24H8Z" /></svg>