<?xml version="1.0" encoding="UTF-8"?><!DOCTYPE svg PUBLIC "-//W3C//DTD SVG 1.1//EN" "http://www.w3.org/Graphics/SVG/1.1/DTD/svg11.dtd"><svg xmlns="http://www.w3.org/2000/svg" xmlns:xlink="http://www.w3.org/1999/xlink" version="1.1" width="24" height="24" viewBox="0 0 24 24"><path d="M13,6H14V5C14,4.45 13.55,4 13,4H10C9.45,4 9,4.45 9,5V6H10V8.07L4.29,17.97C4.1,18.27 4,18.62 4,19C4,20.1 4.9,21 6,21H17C18.1,21 19,20.1 19,19C19,18.62 18.9,18.27 18.71,17.97L13,8.07V6M6,22C4.34,22 3,20.66 3,19C3,18.4 3.18,17.84 3.5,17.37L9,7.81V7C8.45,7 8,6.55 8,6V5C8,3.9 8.9,3 10,3H13C14.1,3 15,3.9 15,5V6C15,6.55 14.55,7 14,7V7.81L19.5,17.37C19.82,17.84 20,18.4 20,19C20,20.66 18.66,22 17,22H6Z" /></svg>