<?xml version="1.0" encoding="UTF-8"?><!DOCTYPE svg PUBLIC "-//W3C//DTD SVG 1.1//EN" "http://www.w3.org/Graphics/SVG/1.1/DTD/svg11.dtd"><svg xmlns="http://www.w3.org/2000/svg" xmlns:xlink="http://www.w3.org/1999/xlink" version="1.1" width="24" height="24" viewBox="0 0 24 24"><path d="M5,5H9L12,8H18C19.66,8 21,9.34 21,11V17C21,18.66 19.66,20 18,20H5C3.34,20 2,18.66 2,17V8C2,6.34 3.34,5 5,5M5,6C3.9,6 3,6.9 3,8V17C3,18.1 3.9,19 5,19H18C19.1,19 20,18.1 20,17V11C20,9.9 19.1,9 18,9H11.59L8.59,6H5M7,17V15H5V14H7V12H8V14H10V15H8V17H7Z" /></svg>