<?xml version="1.0" encoding="UTF-8"?><!DOCTYPE svg PUBLIC "-//W3C//DTD SVG 1.1//EN" "http://www.w3.org/Graphics/SVG/1.1/DTD/svg11.dtd"><svg xmlns="http://www.w3.org/2000/svg" xmlns:xlink="http://www.w3.org/1999/xlink" version="1.1" width="24" height="24" viewBox="0 0 24 24"><path d="M16,14.5C16,16.43 14.43,18 12.5,18H7V5H11.5C13.43,5 15,6.57 15,8.5C15,9.6 14.5,10.57 13.71,11.21C15.05,11.71 16,13 16,14.5M11.5,6H8V11H11.5C12.88,11 14,9.88 14,8.5C14,7.12 12.88,6 11.5,6M12.5,12H8V17H12.5C13.88,17 15,15.88 15,14.5C15,13.12 13.88,12 12.5,12Z" /></svg>