<?xml version="1.0" encoding="UTF-8"?><!DOCTYPE svg PUBLIC "-//W3C//DTD SVG 1.1//EN" "http://www.w3.org/Graphics/SVG/1.1/DTD/svg11.dtd"><svg xmlns="http://www.w3.org/2000/svg" xmlns:xlink="http://www.w3.org/1999/xlink" version="1.1" width="24" height="24" viewBox="0 0 24 24"><path d="M20,18V19H7V18H20M3.5,17.5C4.05,17.5 4.5,17.95 4.5,18.5C4.5,19.05 4.05,19.5 3.5,19.5C2.95,19.5 2.5,19.05 2.5,18.5C2.5,17.95 2.95,17.5 3.5,17.5M20,12V13H7V12H20M3.5,11.5C4.05,11.5 4.5,11.95 4.5,12.5C4.5,13.05 4.05,13.5 3.5,13.5C2.95,13.5 2.5,13.05 2.5,12.5C2.5,11.95 2.95,11.5 3.5,11.5M20,6V7H7V6H20M3.5,5.5C4.05,5.5 4.5,5.95 4.5,6.5C4.5,7.05 4.05,7.5 3.5,7.5C2.95,7.5 2.5,7.05 2.5,6.5C2.5,5.95 2.95,5.5 3.5,5.5Z" /></svg>