<?xml version="1.0" encoding="UTF-8"?><!DOCTYPE svg PUBLIC "-//W3C//DTD SVG 1.1//EN" "http://www.w3.org/Graphics/SVG/1.1/DTD/svg11.dtd"><svg xmlns="http://www.w3.org/2000/svg" xmlns:xlink="http://www.w3.org/1999/xlink" version="1.1" width="24" height="24" viewBox="0 0 24 24"><path d="M2,16.59L5.59,13H15C16.1,13 17,12.1 17,11V6C17,4.9 16.1,4 15,4H4C2.9,4 2,4.9 2,6V16.59M2,18H1V6C1,4.34 2.34,3 4,3H15C16.66,3 18,4.34 18,6V11C18,12.66 16.66,14 15,14H6L2,18M21,20.59V10C21,8.9 20.1,8 19,8V7C20.66,7 22,8.34 22,10V22H21L17,18H8C6.76,18 5.7,17.25 5.24,16.18L6.04,15.38C6.21,16.3 7,17 8,17H17.41L21,20.59Z" /></svg>