<?xml version="1.0" encoding="UTF-8"?><!DOCTYPE svg PUBLIC "-//W3C//DTD SVG 1.1//EN" "http://www.w3.org/Graphics/SVG/1.1/DTD/svg11.dtd"><svg xmlns="http://www.w3.org/2000/svg" xmlns:xlink="http://www.w3.org/1999/xlink" version="1.1" width="24" height="24" viewBox="0 0 24 24"><path d="M5,4H18C19.66,4 21,5.34 21,7V18C21,19.66 19.66,21 18,21H5C3.34,21 2,19.66 2,18V7C2,5.34 3.34,4 5,4M5,5C3.9,5 3,5.9 3,7V18C3,19.1 3.9,20 5,20H18C19.1,20 20,19.1 20,18V7C20,5.9 19.1,5 18,5H5M10,8H17V15H16V9.71L8.85,16.85L8.15,16.15L15.29,9H10V8Z" /></svg>