<?xml version="1.0" encoding="UTF-8"?><!DOCTYPE svg PUBLIC "-//W3C//DTD SVG 1.1//EN" "http://www.w3.org/Graphics/SVG/1.1/DTD/svg11.dtd"><svg xmlns="http://www.w3.org/2000/svg" xmlns:xlink="http://www.w3.org/1999/xlink" version="1.1" width="24" height="24" viewBox="0 0 24 24"><path d="M5,3H18C19.66,3 21,4.34 21,6V19C21,20.66 19.66,22 18,22H5C3.34,22 2,20.66 2,19V6C2,4.34 3.34,3 5,3M5,4C3.9,4 3,4.9 3,6V9H8V4H5M3,19C3,20.1 3.9,21 5,21H8V16H3V19M8,10H3V15H8V10M18,21C19.1,21 20,20.1 20,19V16H15V21H18M20,10H15V15H20V10M20,6C20,4.9 19.1,4 18,4H15V9H20V6M9,4V9H14V4H9M9,21H14V16H9V21M14,10H9V15H14V10Z" /></svg>