<?xml version="1.0" encoding="UTF-8"?><!DOCTYPE svg PUBLIC "-//W3C//DTD SVG 1.1//EN" "http://www.w3.org/Graphics/SVG/1.1/DTD/svg11.dtd"><svg xmlns="http://www.w3.org/2000/svg" xmlns:xlink="http://www.w3.org/1999/xlink" version="1.1" width="24" height="24" viewBox="0 0 24 24"><path d="M7,8V13H13V8H7M2,3H5V4H18V3H21V6H20V19H21V22H18V21H5V22H2V19H3V6H2V3M5,19V20H18V19H19V6H18V5H5V6H4V19H5M6,7H14V11H17V18H8V14H6V7M14,14H9V17H16V12H14V14M3,4V5H4V4H3M19,4V5H20V4H19M19,20V21H20V20H19M3,20V21H4V20H3Z" /></svg>