<?xml version="1.0" encoding="UTF-8"?><!DOCTYPE svg PUBLIC "-//W3C//DTD SVG 1.1//EN" "http://www.w3.org/Graphics/SVG/1.1/DTD/svg11.dtd"><svg xmlns="http://www.w3.org/2000/svg" xmlns:xlink="http://www.w3.org/1999/xlink" version="1.1" width="24" height="24" viewBox="0 0 24 24"><path d="M7,4H16C18.76,4 21,6.24 21,9H2C2,6.24 4.24,4 7,4M16,5H7C5.14,5 3.57,6.27 3.13,8H19.87C19.43,6.27 17.86,5 16,5M21,16C21,18.76 18.76,21 16,21H7C4.24,21 2,18.76 2,16H21M7,20H16C17.86,20 19.43,18.73 19.87,17H3.13C3.57,18.73 5.14,20 7,20M12.5,10L14.5,12L16.5,10H19C20.1,10 21,10.9 21,12V13C21,14.1 20.1,15 19,15H4C2.9,15 2,14.1 2,13V12C2,10.9 2.9,10 4,10H12.5M14.5,13.41L12.09,11H4C3.45,11 3,11.45 3,12V13C3,13.55 3.45,14 4,14H19C19.55,14 20,13.55 20,13V12C20,11.45 19.55,11 19,11H16.91L14.5,13.41Z" /></svg>