<?xml version="1.0" encoding="UTF-8"?><!DOCTYPE svg PUBLIC "-//W3C//DTD SVG 1.1//EN" "http://www.w3.org/Graphics/SVG/1.1/DTD/svg11.dtd"><svg xmlns="http://www.w3.org/2000/svg" xmlns:xlink="http://www.w3.org/1999/xlink" version="1.1" width="24" height="24" viewBox="0 0 24 24"><path d="M4.24,12.25C3.47,11.5 3,10.42 3,9.25C3,6.9 4.9,5 7.25,5C8.83,5 10.21,5.86 10.94,7.14H12.06C12.79,5.86 14.17,5 15.75,5C18.1,5 20,6.9 20,9.25C20,10.42 19.5,11.5 18.76,12.25L11.5,19.5L4.24,12.25M19.46,12.96C20.41,12 21,10.7 21,9.25C21,6.35 18.65,4 15.75,4C14,4 12.45,4.85 11.5,6.17C10.55,4.85 9,4 7.25,4C4.35,4 2,6.35 2,9.25C2,10.7 2.59,12 3.54,12.96L11.5,20.92L19.46,12.96Z" /></svg>