<?xml version="1.0" encoding="UTF-8"?><!DOCTYPE svg PUBLIC "-//W3C//DTD SVG 1.1//EN" "http://www.w3.org/Graphics/SVG/1.1/DTD/svg11.dtd"><svg xmlns="http://www.w3.org/2000/svg" xmlns:xlink="http://www.w3.org/1999/xlink" version="1.1" width="24" height="24" viewBox="0 0 24 24"><path d="M6,6H14C14.97,6 15.83,6.46 16.38,7.18L20.54,12.5L16.38,17.82C15.83,18.54 14.97,19 14,19H6C4.34,19 3,17.66 3,16V9C3,7.34 4.34,6 6,6M15.58,17.23L19.27,12.5L15.58,7.77V7.77C15.21,7.3 14.64,7 14,7H6C4.9,7 4,7.9 4,9V16C4,17.1 4.9,18 6,18H14C14.64,18 15.21,17.7 15.58,17.23V17.23Z" /></svg>