<?xml version="1.0" encoding="UTF-8"?><!DOCTYPE svg PUBLIC "-//W3C//DTD SVG 1.1//EN" "http://www.w3.org/Graphics/SVG/1.1/DTD/svg11.dtd"><svg xmlns="http://www.w3.org/2000/svg" xmlns:xlink="http://www.w3.org/1999/xlink" version="1.1" width="24" height="24" viewBox="0 0 24 24"><path d="M8,13V12H15V13H8M15.5,7C18.54,7 21,9.46 21,12.5C21,15.54 18.54,18 15.5,18H13V17H15.5C18,17 20,15 20,12.5C20,10 18,8 15.5,8H13V7H15.5M7.5,18C4.46,18 2,15.54 2,12.5C2,9.46 4.46,7 7.5,7H10V8H7.5C5,8 3,10 3,12.5C3,15 5,17 7.5,17H10V18H7.5Z" /></svg>