<?xml version="1.0" encoding="UTF-8"?><!DOCTYPE svg PUBLIC "-//W3C//DTD SVG 1.1//EN" "http://www.w3.org/Graphics/SVG/1.1/DTD/svg11.dtd"><svg xmlns="http://www.w3.org/2000/svg" xmlns:xlink="http://www.w3.org/1999/xlink" version="1.1" width="24" height="24" viewBox="0 0 24 24"><path d="M5,3H11C12.66,3 14,4.34 14,6V10H13V6C13,4.9 12.1,4 11,4H5C3.9,4 3,4.9 3,6V19C3,20.1 3.9,21 5,21H11C12.1,21 13,20.1 13,19V15H14V19C14,20.66 12.66,22 11,22H5C3.34,22 2,20.66 2,19V6C2,4.34 3.34,3 5,3M8,12H19.25L16,8.75L16.66,8L21.16,12.5L16.66,17L16,16.25L19.25,13H8V12Z" /></svg>