<?xml version="1.0" encoding="UTF-8"?><!DOCTYPE svg PUBLIC "-//W3C//DTD SVG 1.1//EN" "http://www.w3.org/Graphics/SVG/1.1/DTD/svg11.dtd"><svg xmlns="http://www.w3.org/2000/svg" xmlns:xlink="http://www.w3.org/1999/xlink" version="1.1" width="24" height="24" viewBox="0 0 24 24"><path d="M8,19C6.34,19 5,17.66 5,16V15H3V14H5V11H3V10H5V9C5,7.34 6.34,6 8,6H9V4H10V6H13V4H14V6H15C16.66,6 18,7.34 18,9V10H20V11H18V14H20V15H18V16C18,17.66 16.66,19 15,19H14V21H13V19H10V21H9V19H8M8,7C6.9,7 6,7.9 6,9V16C6,17.1 6.9,18 8,18H15C16.1,18 17,17.1 17,16V9C17,7.9 16.1,7 15,7H8M9,15V10H14V15H9M10,11V14H13V11H10Z" /></svg>