<?xml version="1.0" encoding="UTF-8"?><!DOCTYPE svg PUBLIC "-//W3C//DTD SVG 1.1//EN" "http://www.w3.org/Graphics/SVG/1.1/DTD/svg11.dtd"><svg xmlns="http://www.w3.org/2000/svg" xmlns:xlink="http://www.w3.org/1999/xlink" version="1.1" width="24" height="24" viewBox="0 0 24 24"><path d="M3,20.59L6.59,17H18C19.1,17 20,16.1 20,15V6C20,4.9 19.1,4 18,4H5C3.9,4 3,4.9 3,6V20.59M3,22H2V6C2,4.34 3.34,3 5,3H18C19.66,3 21,4.34 21,6V15C21,16.66 19.66,18 18,18H7L3,22M6,7H17V8H6V7M6,10H17V11H6V10M6,13H14V14H6V13Z" /></svg>