<?xml version="1.0" encoding="UTF-8"?><!DOCTYPE svg PUBLIC "-//W3C//DTD SVG 1.1//EN" "http://www.w3.org/Graphics/SVG/1.1/DTD/svg11.dtd"><svg xmlns="http://www.w3.org/2000/svg" xmlns:xlink="http://www.w3.org/1999/xlink" version="1.1" width="24" height="24" viewBox="0 0 24 24"><path d="M7,12H16V13H7V12M6,4H17C18.66,4 20,5.34 20,7V18C20,19.66 18.66,21 17,21H6C4.34,21 3,19.66 3,18V7C3,5.34 4.34,4 6,4M6,5C4.9,5 4,5.9 4,7V18C4,19.1 4.9,20 6,20H17C18.1,20 19,19.1 19,18V7C19,5.9 18.1,5 17,5H6Z" /></svg>