<?xml version="1.0" encoding="UTF-8"?><!DOCTYPE svg PUBLIC "-//W3C//DTD SVG 1.1//EN" "http://www.w3.org/Graphics/SVG/1.1/DTD/svg11.dtd"><svg xmlns="http://www.w3.org/2000/svg" xmlns:xlink="http://www.w3.org/1999/xlink" version="1.1" width="24" height="24" viewBox="0 0 24 24"><path d="M5,4H18C19.66,4 21,5.34 21,7V14C21,15.66 19.66,17 18,17H13.5L14,20H15V21H8V20H9L9.5,17H5C3.34,17 2,15.66 2,14V7C2,5.34 3.34,4 5,4M10.5,17L10,20H13L12.5,17H10.5M5,5C3.9,5 3,5.9 3,7V14C3,15.1 3.9,16 5,16H18C19.1,16 20,15.1 20,14V7C20,5.9 19.1,5 18,5H5Z" /></svg>