<?xml version="1.0" encoding="UTF-8"?><!DOCTYPE svg PUBLIC "-//W3C//DTD SVG 1.1//EN" "http://www.w3.org/Graphics/SVG/1.1/DTD/svg11.dtd"><svg xmlns="http://www.w3.org/2000/svg" xmlns:xlink="http://www.w3.org/1999/xlink" version="1.1" width="24" height="24" viewBox="0 0 24 24"><path d="M8,6.1L19,5V16C19,17.66 17.66,19 16,19C14.34,19 13,17.66 13,16C13,14.34 14.34,13 16,13C16.77,13 17.47,13.29 18,13.76V9.04L9,10.04V17C9,18.66 7.66,20 6,20C4.34,20 3,18.66 3,17C3,15.34 4.34,14 6,14C6.77,14 7.47,14.29 8,14.76V6.1M9,7V9.03L18,8.04V6.09L9,7M8,17C8,15.9 7.1,15 6,15C4.9,15 4,15.9 4,17C4,18.1 4.9,19 6,19C7.1,19 8,18.1 8,17M18,16C18,14.9 17.1,14 16,14C14.9,14 14,14.9 14,16C14,17.1 14.9,18 16,18C17.1,18 18,17.1 18,16Z" /></svg>