<?xml version="1.0" encoding="UTF-8"?><!DOCTYPE svg PUBLIC "-//W3C//DTD SVG 1.1//EN" "http://www.w3.org/Graphics/SVG/1.1/DTD/svg11.dtd"><svg xmlns="http://www.w3.org/2000/svg" xmlns:xlink="http://www.w3.org/1999/xlink" version="1.1" width="24" height="24" viewBox="0 0 24 24"><path d="M17,12C15.34,12 14,10.66 14,9V5H6C4.9,5 4,5.9 4,7V18C4,19.1 4.9,20 6,20H19C20.1,20 21,19.1 21,18V12H17M15,9C15,10.1 15.9,11 17,11H20.59L15,5.41V9M6,4H15L22,11V18C22,19.66 20.66,21 19,21H6C4.34,21 3,19.66 3,18V7C3,5.34 4.34,4 6,4M6,23C3.24,23 1,20.76 1,18V8H2V18C2,20.21 3.79,22 6,22H18V23H6Z" /></svg>