<?xml version="1.0" encoding="UTF-8"?><!DOCTYPE svg PUBLIC "-//W3C//DTD SVG 1.1//EN" "http://www.w3.org/Graphics/SVG/1.1/DTD/svg11.dtd"><svg xmlns="http://www.w3.org/2000/svg" xmlns:xlink="http://www.w3.org/1999/xlink" version="1.1" width="24" height="24" viewBox="0 0 24 24"><path d="M16,12C14.34,12 13,10.66 13,9V5H5C3.9,5 3,5.9 3,7V18C3,19.1 3.9,20 5,20H18C19.1,20 20,19.1 20,18V12H16M14,9C14,10.1 14.9,11 16,11H19.59L14,5.41V9M5,4H14L21,11V18C21,19.66 19.66,21 18,21H5C3.34,21 2,19.66 2,18V7C2,5.34 3.34,4 5,4M5,8H11V9H5V8M5,12H11V13H5V12M5,16H18V17H5V16Z" /></svg>