<?xml version="1.0" encoding="UTF-8"?><!DOCTYPE svg PUBLIC "-//W3C//DTD SVG 1.1//EN" "http://www.w3.org/Graphics/SVG/1.1/DTD/svg11.dtd"><svg xmlns="http://www.w3.org/2000/svg" xmlns:xlink="http://www.w3.org/1999/xlink" version="1.1" width="24" height="24" viewBox="0 0 24 24"><path d="M17,7V17.5C17,20.54 14.54,23 11.5,23C8.46,23 6,20.54 6,17.5V6C6,3.79 7.79,2 10,2C12.21,2 14,3.79 14,6V16.5C14,17.88 12.88,19 11.5,19C10.12,19 9,17.88 9,16.5V7H10V16.5C10,17.33 10.67,18 11.5,18C12.33,18 13,17.33 13,16.5V7.15L13,7V6C13,4.34 11.66,3 10,3C8.34,3 7,4.34 7,6V16.44L7,17.5C7,20 9,22 11.5,22C14,22 16,20 16,17.5V7H17Z" /></svg>