<?xml version="1.0" encoding="UTF-8"?><!DOCTYPE svg PUBLIC "-//W3C//DTD SVG 1.1//EN" "http://www.w3.org/Graphics/SVG/1.1/DTD/svg11.dtd"><svg xmlns="http://www.w3.org/2000/svg" xmlns:xlink="http://www.w3.org/1999/xlink" version="1.1" width="24" height="24" viewBox="0 0 24 24"><path d="M11,13V4H12V13H11M19,12.5C19,16.64 15.64,20 11.5,20C7.36,20 4,16.64 4,12.5C4,9.79 5.44,7.41 7.6,6.1L8.33,6.83C6.34,7.94 5,10.06 5,12.5C5,16.09 7.91,19 11.5,19C15.09,19 18,16.09 18,12.5C18,10.06 16.66,7.94 14.67,6.83L15.4,6.1C17.56,7.41 19,9.79 19,12.5Z" /></svg>