<?xml version="1.0" encoding="UTF-8"?><!DOCTYPE svg PUBLIC "-//W3C//DTD SVG 1.1//EN" "http://www.w3.org/Graphics/SVG/1.1/DTD/svg11.dtd"><svg xmlns="http://www.w3.org/2000/svg" xmlns:xlink="http://www.w3.org/1999/xlink" version="1.1" width="24" height="24" viewBox="0 0 24 24"><path d="M17,4V9H18C19.66,9 21,10.34 21,12V17H17V21H6V17H2V12C2,10.34 3.34,9 5,9H6V4H17M18,13C17.45,13 17,12.55 17,12C17,11.45 17.45,11 18,11C18.55,11 19,11.45 19,12C19,12.55 18.55,13 18,13M3,12V16H6V14H17V16H20V12C20,10.9 19.1,10 18,10H5C3.9,10 3,10.9 3,12M16,20V15H7V20H16M7,5V9H16V5H7Z" /></svg>