<?xml version="1.0" encoding="UTF-8"?><!DOCTYPE svg PUBLIC "-//W3C//DTD SVG 1.1//EN" "http://www.w3.org/Graphics/SVG/1.1/DTD/svg11.dtd"><svg xmlns="http://www.w3.org/2000/svg" xmlns:xlink="http://www.w3.org/1999/xlink" version="1.1" width="24" height="24" viewBox="0 0 24 24"><path d="M2.79,4.46L3.5,3.75L20.25,20.5L19.54,21.21L16.34,18H4.91L7.24,20.33L6.54,21.04L3,17.5L6.54,13.96L7.24,14.67L4.91,17H15.34L6.34,8H6V12H5V7H5.34L2.79,4.46M20,7.5L16.46,11.04L15.76,10.33L18.09,8H9.16L8.16,7H18.09L15.76,4.67L16.46,3.96L20,7.5M17,13H18V16.84L17,15.84V13Z" /></svg>