<?xml version="1.0" encoding="UTF-8"?><!DOCTYPE svg PUBLIC "-//W3C//DTD SVG 1.1//EN" "http://www.w3.org/Graphics/SVG/1.1/DTD/svg11.dtd"><svg xmlns="http://www.w3.org/2000/svg" xmlns:xlink="http://www.w3.org/1999/xlink" version="1.1" width="24" height="24" viewBox="0 0 24 24"><path d="M5,16C6.66,16 8,17.34 8,19C8,20.66 6.66,22 5,22C3.34,22 2,20.66 2,19C2,17.34 3.34,16 5,16M5,17C3.9,17 3,17.9 3,19C3,20.1 3.9,21 5,21C6.1,21 7,20.1 7,19C7,17.9 6.1,17 5,17M2,11C8.08,11 13,15.92 13,22H12C12,16.48 7.52,12 2,12V11M2,7C10.28,7 17,13.72 17,22H16C16,14.27 9.73,8 2,8V7M2,3C12.5,3 21,11.5 21,22H20C20,12.06 11.94,4 2,4V3Z" /></svg>