<?xml version="1.0" encoding="UTF-8"?><!DOCTYPE svg PUBLIC "-//W3C//DTD SVG 1.1//EN" "http://www.w3.org/Graphics/SVG/1.1/DTD/svg11.dtd"><svg xmlns="http://www.w3.org/2000/svg" xmlns:xlink="http://www.w3.org/1999/xlink" version="1.1" width="24" height="24" viewBox="0 0 24 24"><path d="M6,5H17C18.66,5 20,6.34 20,8V17C20,18.66 18.66,20 17,20H6C4.34,20 3,18.66 3,17V8C3,6.34 4.34,5 6,5M4,17C4,18.1 4.9,19 6,19H11V16H4V17M11,12H4V15H11V12M17,19C18.1,19 19,18.1 19,17V16H12V19H17M19,12H12V15H19V12M4,11H11V8H4V11M12,11H19V8H12V11Z" /></svg>