<?xml version="1.0" encoding="UTF-8"?><!DOCTYPE svg PUBLIC "-//W3C//DTD SVG 1.1//EN" "http://www.w3.org/Graphics/SVG/1.1/DTD/svg11.dtd"><svg xmlns="http://www.w3.org/2000/svg" xmlns:xlink="http://www.w3.org/1999/xlink" version="1.1" width="24" height="24" viewBox="0 0 24 24"><path d="M3.5,18C2.12,18 1,16.88 1,15.5C1,11.36 4.81,8 9.5,8C10.19,8 10.86,8.07 11.5,8.21C12.14,8.07 12.81,8 13.5,8C18.19,8 22,11.36 22,15.5C22,16.88 20.88,18 19.5,18H3.5M2,15.5C2,16.33 2.67,17 3.5,17C4.33,17 5,16.33 5,15.5C5,12.72 6.71,10.3 9.25,9C5.22,9.12 2,12 2,15.5M19.5,17C20.33,17 21,16.33 21,15.5C21,11.91 17.64,9 13.5,9C9.36,9 6,11.91 6,15.5C6,16.06 5.81,16.58 5.5,17H19.5Z" /></svg>