<?xml version="1.0" encoding="UTF-8"?><!DOCTYPE svg PUBLIC "-//W3C//DTD SVG 1.1//EN" "http://www.w3.org/Graphics/SVG/1.1/DTD/svg11.dtd"><svg xmlns="http://www.w3.org/2000/svg" xmlns:xlink="http://www.w3.org/1999/xlink" version="1.1" width="24" height="24" viewBox="0 0 24 24"><path d="M8,21V20H9V19H4C2.34,19 1,17.66 1,16V7C1,5.34 2.34,4 4,4H19C20.66,4 22,5.34 22,7V16C22,17.66 20.66,19 19,19H14V20H15V21H8M10,19V20H13V19H10M4,5C2.9,5 2,5.9 2,7V16C2,17.1 2.9,18 4,18H19C20.1,18 21,17.1 21,16V7C21,5.9 20.1,5 19,5H4Z" /></svg>