<?xml version="1.0" encoding="UTF-8"?><!DOCTYPE svg PUBLIC "-//W3C//DTD SVG 1.1//EN" "http://www.w3.org/Graphics/SVG/1.1/DTD/svg11.dtd"><svg xmlns="http://www.w3.org/2000/svg" xmlns:xlink="http://www.w3.org/1999/xlink" version="1.1" width="24" height="24" viewBox="0 0 24 24"><path d="M5,4H18C19.66,4 21,5.34 21,7V16C21,17.66 19.66,19 18,19H14.5L11.5,22L8.5,19H5C3.34,19 2,17.66 2,16V7C2,5.34 3.34,4 5,4M5,5C3.9,5 3,5.9 3,7V16C3,17.1 3.9,18 5,18H8.91L11.5,20.59L14.09,18H18C19.1,18 20,17.1 20,16V7C20,5.9 19.1,5 18,5H5Z" /></svg>